<?xml version="1.0" standalone="no"?>
<!DOCTYPE svg PUBLIC "-//W3C//DTD SVG 1.1//EN" "http://www.w3.org/Graphics/SVG/1.1/DTD/svg11.dtd" >
<svg xmlns="http://www.w3.org/2000/svg">
<metadata>Generated by IcoMoon</metadata>
<defs>
<font id="icomoon" horiz-adv-x="1024">
<font-face units-per-em="1024" ascent="960" descent="-64" />
<missing-glyph horiz-adv-x="1024" />
<glyph unicode="&#x20;" horiz-adv-x="512" d="" />
<glyph unicode="&#xe900;" glyph-name="Categoria-de-Productos" horiz-adv-x="1145" d="M657.396 847.221c0-8.551 0-17.101 0-26.241-8.809 0-17.027 0-25.946 0 0-13.673 0-26.757 0-39.878 174.365-4.533 331.149-153.725 332.439-346.444 11.757 0 23.551 0.037 35.382 0 13.231-0.037 17.838-4.939 17.248-18.354-1.843-42.642-35.271-80.051-77.397-86.611-3.28-0.516-6.523-1.179-8.477-1.548 2.138-9.251 5.418-18.244 6.081-27.384 1.29-17.138-5.823-31.327-19.018-42.237-54.031-44.706-108.098-89.301-162.165-133.971-18.686-15.443-40.136-22.666-64.424-22.629-100.911 0.147-201.785 0.074-302.696 0.074-3.28 0-6.56 0-10.762 0 0-12.236 0.037-23.809 0-35.345-0.074-13.489-4.496-17.875-18.022-17.875-47.138-0.037-94.24 0-141.379 0 0 8.882 0 17.728 0 26.61 44.153 0 88.27 0 132.349 0 0 67.225 0 133.012 0 199.611-44.411 0-88.38 0-132.349 0 0 8.882 0 17.728 0 26.61 47.36 0 94.756 0.995 142.079-0.7 12.162-0.442 19.423 3.538 27.236 10.43 6.007 5.27 12.236 10.32 20.123 16.917-34.35 0-65.935-0.774-97.483 0.184-39.288 1.216-67.593 20.455-84.142 56.131-3.649 7.887-5.27 16.733-7.85 25.136 0 5.528 0 11.094 0 16.622 4.681 6.781 11.13 8.845 19.276 8.44 11.204-0.553 22.445-0.147 33.649-0.147 1.106 189.623 154.241 341.284 332.586 346.444 0 12.863 0 25.762 0 39.546-8.772 0-17.212 0-26.204 0 0 9.435 0 17.986 0 26.536 26.61 0.074 53.257 0.074 79.866 0.074zM298.568 435.285c213.026 0 425.426 0 637.862 0 1.585 166.183-134.892 319.429-320.24 318.618-185.716-0.848-319.687-155.126-317.623-318.618zM377.919 128.608c4.312 0 7.592 0 10.872 0 99.768 0 199.574 0.221 299.342-0.184 21.081-0.074 38.699 6.45 54.731 19.939 34.092 28.784 68.699 56.905 103.086 85.358 18.354 15.185 36.782 30.295 54.989 45.664 8.624 7.297 11.646 16.806 8.145 27.679-3.317 10.209-10.946 16.954-21.413 16.696-7.187-0.184-15.221-3.206-21.192-7.408-48.060-33.723-95.641-68.183-143.664-101.98-4.828-3.391-11.573-5.639-17.47-5.676-50.456-0.442-100.874-0.295-151.33-0.221-24.878 0.037-42.937 16.843-43.011 39.804-0.037 23.035 18.022 39.952 42.79 39.988 25.209 0.074 50.456 0 75.665 0 1.953 0 3.87-0.037 5.823 0 13.047 0.258 22.077 8.403 22.003 19.902s-9.14 19.976-22.003 19.976c-57.090 0.111-114.179 0.037-171.305 0.037-10.467 0-19.386-3.833-27.31-10.467-13.6-11.388-26.499-23.809-41.094-33.76-14.374-9.84-18.76-21.561-18.133-38.735 1.437-38.404 0.479-76.955 0.479-116.612zM988.029 407.643c-247.376 0-494.199 0-741.39 0 0.221-1.548 0.258-2.654 0.553-3.686 8.256-29.964 34.276-49.092 67.077-49.092 202.043-0.037 404.123 0 606.166 0 2.211 0 4.423 0 6.634 0.111 29.743 1.401 55.91 23.846 60.959 52.667zM836.073 327.777c-53.146 0-104.228 0-155.347 0 0-0.921-0.184-1.769 0.037-2.506 10.025-36.561-10.467-63.539-48.392-63.576-26.315 0-52.63 0.037-78.945-0.037-9.804-0.037-15.737-5.16-15.737-13.268-0.037-8.293 6.081-13.305 16.511-13.342 48.76-0.037 97.52-0.111 146.28 0.147 3.796 0.037 8.145 1.622 11.278 3.833 32.138 22.666 64.092 45.591 96.083 68.441 8.882 6.413 17.764 12.789 28.232 20.308zM285.005 102.035c-22.077-0.111-40.21 18.022-40.099 40.062 0.074 21.708 17.949 39.583 39.657 39.694 22.077 0.111 40.21-17.986 40.136-40.062-0.111-21.671-17.986-39.583-39.694-39.694zM284.453 155.181c-7.224-0.184-13.084-6.376-12.9-13.563 0.184-7.224 6.376-13.121 13.563-12.9 7.187 0.184 13.121 6.413 12.9 13.6-0.184 7.15-6.376 13.047-13.563 12.863zM617.039 727.588c0-9.14 0-17.322 0-26.462-69.363-1.29-130.064-25.099-181.662-72.348-6.044 6.376-11.757 12.384-18.244 19.202 56.758 52.077 123.024 78.097 199.906 79.608zM372.575 595.865c8.919 11.536 17.138 22.15 25.688 33.207 7.039-6.192 13.231-11.646 19.865-17.47-7.666-10.025-15.185-19.792-23.219-30.332-6.966 4.533-14.005 9.14-22.335 14.595z" />
<glyph unicode="&#xe901;" glyph-name="Combos" horiz-adv-x="1145" d="M161.834 488.283c2.064 15.074 3.575 30.222 6.302 45.185 18.059 99.216 66.525 180.704 144.622 244.317 58.048 47.286 124.499 76.328 198.689 85.69 118.381 14.963 224.378-15.553 315.78-92.508 73.232-61.66 119.376-140.347 136.182-234.624 21.192-118.97-5.197-227.547-79.719-322.893-64.424-82.409-149.487-131.649-252.536-149.561-13.158-2.285-26.499-3.464-39.73-5.16-16.843 0-33.686 0-50.529 0-9.877 1.216-19.755 2.285-29.595 3.686-79.903 11.425-150.703 43.121-211.257 96.562-70.874 62.507-115.1 140.42-131.87 233.592-2.69 14.963-4.202 30.111-6.302 45.185-0.037 16.843-0.037 33.686-0.037 50.529zM565.736 840.403c-207.977-0.221-376.961-169.352-376.997-377.292-0.037-208.235 169.61-377.808 377.624-377.44 208.198 0.369 377.366 169.979 377.108 378.177-0.295 207.793-169.794 376.739-377.735 376.555zM625.626 342.445c2.211 51.082 3.722 86.832 5.455 122.545 0.258 4.976-0.958 7.924-5.418 10.836-23.44 15.148-31.254 38.367-32.507 64.866-1.511 31.512 6.671 61.217 18.833 89.486 10.025 23.219 30.074 34.866 55.431 34.792s45.259-11.868 55.173-35.197c11.831-27.863 20.123-57.053 18.538-87.975-0.369-7.076-1.179-14.153-2.506-21.118-3.612-19.312-13.858-34.46-30.295-45.148-3.796-2.469-5.27-4.939-5.049-9.435 2.543-54.657 4.939-109.277 7.334-163.934 0.737-16.29 1.732-32.58 2.174-48.871 0.7-26.315-19.534-46.328-46.254-46.107-26.020 0.221-45.996 20.639-44.964 46.623 1.364 34.644 3.17 69.326 4.054 88.638zM653.563 365.885c0.037 0 0.037 0 0.074 0-1.695-36.782-3.428-73.601-5.123-110.383-0.59-13.158 6.56-21.266 18.612-21.266s19.312 8.071 18.686 21.192c-3.317 73.601-6.671 147.202-10.172 220.803-0.405 8.735 2.469 14.521 10.762 17.949 16.364 6.818 24.251 19.681 26.794 36.966 4.496 30.664-4.312 59.006-14.742 86.869-5.012 13.452-16.88 20.086-31.254 20.086s-26.278-6.56-31.291-20.013c-10.283-27.605-19.128-55.689-14.89-86.095 2.506-17.949 10.578-31.106 27.531-38.183 7.297-3.022 10.541-8.219 10.172-15.959-1.769-37.298-3.464-74.633-5.16-111.968zM477.724 371.045c-1.916 37.593-3.686 75.149-5.86 112.742-0.442 7.703 1.327 13.71 7.003 19.054 9.582 9.030 18.538 18.686 28.047 27.752 3.907 3.722 5.528 7.555 5.492 13.047-0.258 35.271-0.184 70.542-0.111 105.813 0.037 10.356 6.634 16.917 15.295 15.553 6.634-1.032 11.462-6.413 11.499-13.968 0.147-39.988 0.221-80.014-0.184-120.002-0.037-3.944-2.69-8.551-5.528-11.61-9.656-10.393-20.16-20.050-29.853-30.443-2.359-2.506-4.128-6.818-3.944-10.209 3.391-73.085 7.003-146.133 10.836-219.181 1.032-19.46-4.939-35.455-21.892-45.812-15.148-9.251-31.069-9.361-46.438-0.332-15.664 9.177-23.293 23.477-22.519 41.463 1.916 44.706 4.423 89.338 6.634 134.044 1.511 30.222 3.096 60.443 4.275 90.665 0.111 3.133-1.769 7.076-3.98 9.435-9.73 10.32-20.271 19.939-29.816 30.443-3.059 3.354-5.492 8.698-5.565 13.121-0.442 38.957-0.221 77.913-0.258 116.833 0 6.302 1.769 12.126 7.998 13.968 4.017 1.179 10.246 1.069 12.973-1.327 3.354-2.948 5.639-8.882 5.713-13.563 0.442-34.46 0.442-68.957 0.074-103.417-0.074-6.708 1.953-11.278 6.708-15.701 9.398-8.809 18.207-18.244 27.494-27.2 4.939-4.754 6.818-10.098 6.45-16.954-4.054-76.181-7.924-152.399-11.794-228.616-0.7-13.415 6.929-22.556 18.575-22.519s19.202 9.214 18.502 22.593c-1.953 38.109-3.944 76.218-5.897 114.29 0 0.037 0.037 0.037 0.074 0.037zM835.704 457.914c-1.179-67.409-26.278-130.58-76.992-183.284-7.113-7.408-15.553-8.256-21.413-2.359-5.713 5.786-5.16 13.489 1.916 20.823 37.667 39.178 60.738 85.505 67.299 139.536 8.071 66.635-8.735 126.636-49.534 179.93-1.769 2.285-3.722 4.46-5.381 6.818-4.681 6.634-3.796 14.484 1.99 19.054 5.934 4.681 13.968 4.275 18.87-2.359 10.246-13.968 20.823-27.863 29.374-42.9 22.887-40.062 33.391-83.699 33.87-135.261zM296.468 463.369c0.7 57.053 16.99 109.13 50.013 155.789 5.897 8.329 13.194 10.356 20.086 5.749 6.745-4.496 7.74-12.789 2.138-20.787-34.46-49.018-49.387-103.454-44.079-163.050 4.865-54.989 26.61-102.754 64.092-143.332 1.953-2.138 4.091-4.128 5.897-6.376 4.976-6.155 4.718-13.415-0.442-18.538-5.381-5.307-13.415-5.676-19.018 0.295-8.661 9.177-17.212 18.538-24.767 28.6-35.271 46.917-53.699 102.901-53.92 161.649zM566.362 734.185c20.234-2.912 40.504-5.492 60.628-8.845 9.877-1.659 14.521-8.661 12.457-16.511-2.138-8.182-8.735-11.536-18.612-9.398-46.807 10.209-92.84 7.74-137.988-8.624-6.487-2.359-13.194-2.838-16.954 3.354-2.322 3.833-2.985 10.135-1.622 14.374 1.106 3.354 6.155 6.229 10.062 7.703 29.595 11.057 60.296 16.032 92.029 17.949zM498.585 597.266c0-16.806 0.074-33.649-0.037-50.456-0.074-10.467-4.644-15.995-13.084-16.143-8.661-0.147-13.747 5.749-13.784 16.438-0.074 33.907-0.074 67.815 0 101.722 0.037 9.988 5.234 16.106 13.305 16.253 8.44 0.147 13.526-5.934 13.563-16.585 0.074-17.064 0.037-34.165 0.037-51.229zM431.47 597.892c0 17.101-0.074 34.165 0.037 51.266 0.074 10.062 5.16 15.995 13.379 15.959 8.108-0.074 13.452-6.192 13.452-16.106 0.111-34.165 0.111-68.331 0-102.496-0.037-10.098-5.234-15.848-13.637-15.811-8.44 0.037-13.158 5.639-13.231 15.995-0.037 17.027 0 34.128 0 51.193zM566.178 220.305c8.735 0.516 17.912 1.069 27.126 1.548 9.546 0.516 15.664-3.907 16.511-11.868 0.811-7.703-4.607-14.411-14.005-14.705-19.681-0.627-39.399-0.627-59.043-0.037-9.472 0.295-14.779 6.745-14.116 14.595 0.7 8.219 6.966 12.605 17.101 11.978 8.624-0.516 17.322-0.995 26.426-1.511z" />
<glyph unicode="&#xe902;" glyph-name="Productos" horiz-adv-x="1145" d="M139.941 568.002c0 12.568 0 25.136 0 37.667 0.516 2.432 1.253 4.865 1.548 7.371 14.337 122.251 126.047 208.53 247.707 190.913 6.45-0.921 9.73 1.032 13.747 5.27 45.517 48.465 101.501 75.038 167.988 76.955 73.159 2.101 134.634-25.025 184.389-78.613 3.28-3.538 6.118-4.644 11.020-3.722 22.077 3.98 44.337 3.722 66.451 0.147 90.702-14.595 164.598-86.943 180.298-176.281 16.364-92.95-26.131-184.426-107.398-230.348-6.634-3.759-8.809-7.629-8.809-15.111 0.258-96.193 0.221-192.35 0.147-288.544-0.037-35.382-16.106-61.070-47.802-76.623-7.039-3.464-15.037-4.976-22.593-7.371-165.556 0-331.112 0-496.631 0-0.479 0.295-0.885 0.774-1.401 0.921-47.544 12.162-68.957 39.804-68.92 89.043 0.074 94.682 0.074 189.402 0.332 284.084 0 6.118-1.585 9.435-7.187 12.605-51.524 29.005-86.132 72.016-103.528 128.479-4.312 13.968-6.302 28.747-9.361 43.158zM299.453 209.543c186.859 0 372.206 0 557.959 0 0 3.87 0 7.003 0 10.135 0 59.080 0.369 118.16-0.258 177.239-0.147 14.927 5.381 23.145 18.575 29.964 66.451 34.202 101.906 89.559 100.616 164.008-1.327 75.223-39.509 129.327-107.766 161.281-25.615 11.978-52.999 16.438-81.377 14.153-0.074-1.216-0.332-1.843-0.111-2.285 1.179-2.58 2.432-5.123 3.759-7.666 17.027-32.986 25.836-68.073 26.61-105.186 0.295-14.116-7.261-23.145-19.276-23.44-12.199-0.332-19.865 7.961-20.787 22.15-0.663 10.246-0.885 20.566-2.617 30.664-15.885 93.134-93.503 161.281-188.812 166.072-90.997 4.607-175.396-57.163-199.611-147.054-4.312-16.069-5.307-33.096-7.003-49.755-1.511-14.742-9.73-23.293-22.703-21.929-11.020 1.143-17.801 9.988-17.506 23.403 0.848 37.077 9.619 72.164 26.647 105.186 1.511 2.948 2.912 5.934 4.754 9.693-20.602 1.99-39.694-0.332-58.453-5.418-72.348-19.644-127.263-83.773-132.054-162.202-4.312-70.837 34.165-140.678 102.348-172.522 12.568-5.86 17.58-14.079 17.433-27.974-0.59-59.375-0.369-118.749-0.442-178.087 0.074-3.391 0.074-6.745 0.074-10.43zM857.301 168.597c-186.269 0-371.616 0-557.517 0-0.147-3.206-0.369-5.971-0.369-8.735-0.037-20.566-0.074-41.094-0.074-61.66-0.037-32.802 15.959-48.797 48.834-48.797 153.541 0 307.082 0 460.623 0 2.838 0 5.713-0.074 8.551 0.111 21.855 1.548 39.030 17.359 39.73 38.662 0.885 26.462 0.221 52.999 0.221 80.419zM359.012 487.73c9.435 0.037 18.022-5.639 19.091-15.037 4.681-42.31 29.3-74.596 52.962-107.398 0.663-0.921 1.437-1.769 2.138-2.69 7.85-10.578 7.039-22.593-1.953-29.706-9.214-7.297-21.487-5.897-29.116 5.012-14.816 21.229-29.411 42.642-42.605 64.903-11.094 18.686-18.502 39.141-20.16 61.181-1.069 13.784 7.187 23.661 19.644 23.735zM817.497 466.907c-1.29-22.924-8.182-43.011-18.833-61.254-13.452-23.072-28.526-45.222-43.674-67.262-7.887-11.425-20.344-12.936-29.706-5.344-8.919 7.261-9.14 18.796-1.732 29.779 13.784 20.529 28.305 40.762 39.988 62.47 7.113 13.158 10.32 28.674 13.821 43.49 2.948 12.347 10.504 19.865 22.224 18.833 10.909-0.921 18.244-10.062 17.912-20.713zM598.39 408.454c0-18.833 0-37.667 0-56.5 0-8.44-2.138-15.848-9.914-20.455-11.462-6.818-25.91-0.958-29.153 11.978-0.737 2.985-0.995 6.192-0.995 9.325-0.074 37.077-0.074 74.191 0 111.267 0.037 13.415 6.155 21.855 16.585 23.44 13.231 1.99 23.182-6.929 23.403-21.708 0.295-19.091 0.074-38.219 0.074-57.348z" />
<glyph unicode="&#xe903;" glyph-name="Usuario" horiz-adv-x="1145" d="M1032.882 30.203c-4.165 0.147-8.366 0.442-12.531 0.442-297.758 0.037-595.478 0.037-893.236 0.037-4.128 0-8.256 0-11.941 0-0.774 1.216-1.364 1.695-1.364 2.138 0.221 26.315-1.548 52.814 1.143 78.871 5.012 48.355 31.033 83.773 73.527 107.029 42.716 23.403 85.358 46.954 128.369 69.878 18.354 9.767 25.983 23.993 26.905 44.743 1.253 27.605-2.69 52.040-19.939 75.259-16.364 22.040-25.541 48.502-32.875 75.223-0.811 2.985-2.69 6.044-4.939 8.182-13.047 12.531-19.202 27.937-19.386 45.775-0.221 19.755-0.184 39.509 0 59.264 0.111 12.531 3.907 23.956 10.393 34.792 2.838 4.754 4.791 10.836 4.865 16.327 0.369 26.905 0.037 53.846-0.147 80.788-0.442 58.232 30.517 106.439 85.984 127.484 64.719 24.546 130.654 23.993 195.667 0.369 34.571-12.568 60.075-36.303 75.112-70.468 0.59-1.327 1.437-2.506 1.327-2.359 20.86 3.575 40.689 8.735 60.775 10.025 54.104 3.464 103.454-9.214 143.148-48.613 28.489-28.268 44.669-63.392 52.298-102.275 3.686-18.686 4.533-37.925 6.487-56.942 5.565-53.367 22.74-103.233 47.396-150.445 14.079-26.978 30.148-52.962 46.512-78.65 20.086-31.512 9.767-63.134-25.725-74.743-20.123-6.56-40.947-7.813-62.028-7.555-33.502 0.442-67.004 0.221-100.506 0.258-0.848 0-1.695-0.405-5.786-1.401 6.671-4.902 11.167-9.582 16.659-11.978 45.627-20.123 91.513-39.73 137.214-59.706 42.126-18.428 67.188-50.456 75.001-95.825 0.258-1.401 0.995-2.727 1.511-4.128 0.111-23.919 0.111-47.876 0.111-71.795zM788.271 61.862c-0.737 16.917 0.111 33.502-2.506 49.534-5.934 36.082-26.61 62.065-59.227 78.466-47.802 24.030-95.751 47.765-143.516 71.869-26.462 13.379-39.804 35.382-40.357 64.903-0.369 18.833-0.221 37.703 0.074 56.574 0.037 3.28 1.253 7.187 3.28 9.656 25.688 31.069 44.043 66.045 56.316 104.302 1.659 5.197 3.98 8.477 9.619 10.32 15.553 5.086 22.335 15.148 22.408 31.733 0.111 18.87-0.147 37.703 0.074 56.574 0.111 9.914-3.538 17.801-10.246 24.951-2.543 2.69-4.644 7.039-4.681 10.651-0.258 31.438-0.442 62.839 0.184 94.277 0.958 46.696-21.708 84.916-65.272 101.685-58.564 22.556-118.454 22.556-177.055 0-43.195-16.622-65.861-54.289-65.087-99.916 0.553-32.028 0.442-64.055 0.221-96.046-0.037-3.575-2.174-7.924-4.754-10.541-6.929-7.039-10.504-15.148-10.504-24.878-0.037-19.165-0.037-38.293 0-57.458 0.037-11.904 4.939-21.155 14.779-28.195 2.801-1.99 5.197-5.749 6.007-9.14 9.804-39.473 27.384-75.075 51.819-107.508 2.285-3.059 3.796-7.445 3.87-11.241 0.405-17.064 0.037-34.128 0.221-51.156 0.295-30.701-13.010-53.257-39.988-67.962-42.274-22.998-84.179-46.659-126.784-69.068-58.416-30.738-67.446-78.982-62.102-132.275 213.837-0.111 427.637-0.111 643.206-0.111zM1001.702 61.715c0.295 1.843 0.553 2.727 0.553 3.612 0.037 7.187 0.258 14.374 0.037 21.524-1.364 40.615-20.050 70.1-57.384 86.648-45.591 20.234-91.439 39.878-137.325 59.485-13.563 5.786-23.551 14.927-30.701 27.605-12.973 22.998-0.59 45.222 25.762 45.296 37.114 0.111 74.191-0.921 111.267-0.184 15.959 0.332 32.175 2.654 47.728 6.339 15.811 3.722 18.207 13.747 9.472 27.716-13.931 22.298-28.305 44.374-40.873 67.446-27.605 50.714-48.17 104.117-56.242 161.649-2.948 21.008-2.801 42.458-6.523 63.281-9.325 51.672-32.949 94.461-82.741 117.459-38.662 17.875-79.24 18.649-120.15 7.961-15.479-4.017-15.406-4.165-14.521-19.534 0.221-3.575 0.184-7.187 0.184-10.762-0.074-27.236-0.405-54.436-0.111-81.672 0.037-4.386 1.769-9.288 4.128-13.047 6.634-10.688 10.762-21.929 10.725-34.608-0.037-20.639 0.221-41.278-0.074-61.918-0.295-22.74-10.762-39.804-29.816-52.114-3.391-2.211-6.155-6.118-8.035-9.84-11.573-22.887-20.086-47.912-34.939-68.367-15.701-21.597-21.892-43.305-18.944-68.847 0.921-7.961 1.253-16.032 2.469-23.919 0.774-4.976 3.98-7.297 9.582-7.076 10.135 0.332 20.381 0.516 30.48-0.405 14.779-1.364 25.43-14.558 22.74-28.821-1.364-7.187 1.548-9.288 6.855-11.904 32.912-16.29 65.824-32.691 98.552-49.387 28.158-14.374 48.686-36.303 62.028-64.94 9.398-20.16 12.752-41.573 12.531-63.687-0.074-8.219 0-16.401 0-24.914 61.991-0.074 122.324-0.074 183.284-0.074z" />
<glyph unicode="&#xe904;" glyph-name="Reporte-de-Compras" horiz-adv-x="1145" d="M692.704 851.607c17.285-8.403 34.35-17.359 52.003-25.025 10.614-4.607 14.3-11.241 14.116-22.666-0.627-34.46-0.221-68.957-0.221-103.417 0-3.059 0-6.081 0-10.356 3.538 0 6.487 0 9.435 0 20.75 0 41.463 0.074 62.212-0.037 14.411-0.074 22.408-7.924 22.482-22.335 0.111-44.853 0.147-89.67-0.074-134.523-0.037-5.639 0.995-9.656 6.781-11.757 16.659-6.044 20.75-17.912 20.676-35.345-0.774-130.027-0.405-260.091-0.442-390.155 0-27.052-14.853-46.070-39.546-50.75-4.091-0.774-8.366-0.811-12.531-0.811-171.527-0.037-343.053-0.037-514.58-0.037-31.991 0-52.077 19.939-52.077 51.856-0.037 133.123 0.037 266.246-0.147 399.406 0 9.877 3.096 17.212 12.31 20.713 12.273 4.644 15.406 12.826 15.074 25.762-0.958 40.32-0.369 80.714-0.369 121.071 0 19.939 6.929 26.942 26.573 26.942 22.113 0 44.227 0 67.593 0 0 3.428 0 6.376 0 9.288 0 35.603 0.147 71.205-0.111 106.771-0.074 9.251 3.133 15.111 11.831 19.018 18.612 8.366 36.856 17.506 55.247 26.352 3.354 0 6.745 0 10.098 0 16.622-7.777 33.244-15.664 49.94-23.256 1.769-0.811 4.496-0.921 6.229-0.147 16.659 7.666 33.207 15.59 49.792 23.403 3.907 0 7.85 0 11.757 0 16.438-7.85 32.875-15.774 49.387-23.477 1.511-0.7 3.944-0.737 5.492-0.037 16.511 7.703 32.949 15.627 49.387 23.514 3.833 0.037 7.777 0.037 11.683 0.037zM852.142 152.012c0 112.631 0 224.23 0 335.903-188.259 0-375.855 0-563.856 0 0-112.041 0-223.641 0-335.903 3.87 0 7.187 0 10.504 0 141.784 0 283.568 0 425.352 0 2.801 0 5.639 0.147 8.403-0.111 7.555-0.737 12.457-6.044 12.494-13.231s-4.865-12.642-12.31-13.415c-2.764-0.295-5.602-0.111-8.403-0.111-142.079 0-284.121 0-426.2 0-3.243 0-6.487 0-10.393 0 0-9.509 0-17.875 0-26.241 0.037-20.418 7.297-27.605 27.9-27.605 169.794 0 339.589 0 509.42 0 2.801 0 5.639-0.111 8.403 0.147 9.398 0.885 18.022 7.629 18.686 16.548 0.885 12.126 0.221 24.399 0.221 37.151-21.45 0-42.126-0.037-62.802 0-11.057 0.037-17.58 5.27-17.359 13.784 0.221 8.182 6.56 13.084 17.175 13.084 20.676 0.037 41.389 0 62.765 0zM408.804 515.778c108.024 0 215.127 0 322.23 0 0.258 1.29 0.59 2.101 0.59 2.875 0.037 92.987 0.111 186.011-0.147 278.998 0 2.506-2.543 6.081-4.865 7.297-11.167 5.786-22.519 11.315-34.092 16.143-3.317 1.401-8.219 1.327-11.573-0.074-13.931-5.86-27.568-12.31-41.205-18.833-7.666-3.686-14.89-3.501-22.519 0.184-12.863 6.192-26.020 11.683-38.772 18.059-5.528 2.764-10.062 2.985-15.701 0.184-12.752-6.376-25.946-11.831-38.735-18.133-8.256-4.054-15.922-3.759-24.067 0.221-12.568 6.155-25.541 11.462-38.035 17.728-5.565 2.764-10.098 3.059-15.664 0.111-9.619-5.123-19.46-9.914-29.558-14.005-6.118-2.469-8.071-5.786-8.035-12.457 0.258-89.633 0.184-179.266 0.184-268.9-0.037-3.059-0.037-6.044-0.037-9.398zM315.043 541.134c15.811 9.177 29.816 19.091 45.259 25.799 18.059 7.813 24.951 19.534 21.892 38.699-0.848 5.27-2.064 8.403-6.745 11.094-17.912 10.356-35.529 21.192-53.293 31.77-2.027 1.216-4.238 2.138-7.113 3.575 0-37.077 0-73.048 0-110.936zM825.421 541.319c0 37.63 0 73.638 0 109.904-1.253-0.147-2.174-0.037-2.801-0.405-20.197-12.052-40.357-24.141-60.443-36.303-1.327-0.811-3.243-2.211-3.28-3.391-0.258-9.804-0.221-19.607-0.037-29.374 0.037-1.032 1.437-2.359 2.543-3.022 20.934-12.31 41.868-24.509 64.018-37.409zM813.369 515.593c0.111 0.479 0.221 0.958 0.332 1.437-17.986 10.43-35.971 20.86-54.436 31.549 0-11.941 0-22.445 0-33.023 18.465 0.037 36.266 0.037 54.104 0.037zM327.242 516.994c0.221-0.405 0.442-0.811 0.663-1.253 17.764 0 35.529 0 53.33 0 0 10.836 0 21.192 0 32.728-18.649-10.872-36.303-21.192-53.994-31.475zM759.191 662.869c0-6.265 0-11.868 0-18.612 10.393 6.229 19.792 11.831 31.106 18.612-11.683 0-21.045 0-31.106 0zM381.42 662.5c-9.73 0-19.018 0-30.259 0 10.983-6.56 20.197-12.015 30.259-18.022 0 6.56 0 11.978 0 18.022zM570.379 247.505c-21.008 0-42.237-2.174-62.913 0.405-56.537 7.113-97.889 55.099-98.479 112.115-0.074 6.45-1.364 10.283-7.592 13.747-16.032 8.956-22.887 28.121-17.654 45.738 5.049 17.027 21.155 28.711 39.288 28.526 17.986-0.184 33.318-12.126 38.219-29.779 4.791-17.248-2.285-36.119-18.244-44.743-6.487-3.501-7.519-7.445-7.334-13.895 1.622-48.65 39.767-86.242 88.306-86.537 31.106-0.184 62.212-0.221 93.319 0 50.050 0.369 88.97 41.205 87.643 91.255-0.147 5.16-3.022 6.413-6.413 8.329-16.401 9.361-23.993 28.010-18.944 46.107 4.718 16.99 20.971 29.153 38.846 29.116 18.354-0.037 34.055-12.199 38.883-30.111 4.718-17.543-2.985-36.192-19.349-45.111-4.46-2.432-6.376-4.865-6.45-10.135-0.958-67.925-50.308-116.354-118.27-116.39-14.3 0-28.6 0-42.863 0 0 0.479 0 0.921 0 1.364zM435.598 408.012c-0.184 7.445-6.229 13.231-13.637 13.010-7.187-0.221-13.305-6.671-13.047-13.784 0.258-7.187 6.708-13.231 13.858-13.010 7.371 0.221 13.047 6.302 12.826 13.784zM718.134 421.022c-7.187-0.111-13.379-6.487-13.231-13.6 0.147-7.187 6.523-13.305 13.673-13.194 7.371 0.111 13.121 6.155 13.010 13.637-0.111 7.445-6.081 13.268-13.452 13.158zM516.423 715.204c0-12.052-0.295-22.961 0.258-33.87 0.111-2.248 2.875-5.27 5.197-6.339 9.84-4.496 20.823-7.039 29.853-12.789 24.435-15.59 24.472-49.497 0.147-65.235-8.735-5.639-19.128-9.030-29.153-12.273-4.57-1.474-6.818-2.69-6.302-7.592 0.295-2.764 0.147-5.602-0.037-8.403-0.553-7.592-5.713-12.826-12.715-13.084-6.855-0.258-12.9 4.718-13.784 12.089-0.59 4.939-0.111 9.988-0.111 14.042-10.614 4.128-20.381 7.371-29.632 11.72-8.219 3.87-10.762 11.868-7.15 18.76 3.612 6.855 11.167 8.698 19.57 4.791 3.022-1.401 6.081-2.875 9.214-4.017 2.064-0.774 4.275-1.069 7.15-1.732 0 13.121 0 25.799 0 37.961-10.062 4.054-20.381 7.408-30.001 12.199-14.411 7.187-22.851 19.57-22.74 35.603 0.111 15.995 8.587 28.305 23.109 35.382 9.214 4.496 19.091 7.629 30.295 12.015 0 2.838-0.221 7.519 0.037 12.162 0.516 8.587 6.044 14.226 13.563 14.189 7.629-0.037 12.863-5.639 13.194-14.3 0.184-4.423 0.037-8.845 0.037-12.31 10.209-3.686 19.534-6.487 28.416-10.393 9.067-4.017 11.978-11.646 8.366-18.907-3.649-7.334-11.167-9.214-20.050-5.16-3.28 1.511-6.671 2.838-10.098 4.054-1.806 0.663-3.722 0.848-6.634 1.437zM516.865 609.944c7.519 3.501 14.521 5.713 20.308 9.656 8.145 5.565 8.071 14.595-0.111 20.123-5.823 3.944-12.715 6.229-20.197 9.73 0-13.858 0-25.725 0-39.509zM489.149 716.384c-7.187-3.243-13.821-5.344-19.46-9.030-8.735-5.676-8.772-15.443-0.037-21.155 5.639-3.686 12.31-5.823 19.497-9.067 0 13.673 0 25.541 0 39.251zM677.445 676.727c-4.202 0-8.403-0.184-12.605 0.037-7.961 0.442-13.563 5.897-13.747 13.084-0.184 7.113 5.418 13.305 13.158 13.6 9.214 0.369 18.502 0.405 27.716-0.037 7.629-0.332 12.568-5.823 12.678-13.010 0.147-7.519-4.976-13.084-12.936-13.637-4.718-0.258-9.509 0-14.263-0.037zM678.404 649.711c4.496 0 8.993 0.258 13.415-0.074 7.998-0.59 13.010-6.192 12.826-13.747-0.184-7.15-5.197-12.568-12.826-12.9-9.214-0.369-18.465-0.369-27.716 0-7.445 0.295-12.789 5.971-13.047 12.863-0.258 7.113 5.307 13.194 13.047 13.747 4.754 0.405 9.546 0.111 14.3 0.111zM677.74 569.108c-4.496 0-8.956-0.221-13.415 0.074-7.74 0.516-13.342 6.487-13.194 13.6 0.147 6.855 5.492 12.715 12.863 13.010 9.214 0.405 18.465 0.405 27.716 0.037 7.998-0.332 13.121-6.044 12.973-13.563-0.147-7.482-5.344-12.678-13.489-13.121-4.496-0.221-8.993-0.037-13.452-0.037zM611.068 676.764c-7.187-0.221-13.563 5.823-13.784 13.084-0.221 7.187 5.934 13.526 13.158 13.673 7.445 0.147 13.452-5.639 13.6-13.047 0.184-7.482-5.528-13.489-12.973-13.71zM623.931 636.001c-0.111-7.482-6.044-13.231-13.526-13.047-7.261 0.184-13.379 6.523-13.121 13.673 0.258 7.297 6.56 13.342 13.71 13.084 7.519-0.258 13.047-6.118 12.936-13.71zM623.931 582.155c-0.111-7.482-6.081-13.231-13.526-13.047-7.297 0.184-13.379 6.523-13.121 13.673 0.258 7.297 6.56 13.305 13.747 13.084 7.482-0.221 13.010-6.118 12.9-13.71z" />
<glyph unicode="&#xe905;" glyph-name="Empleados" horiz-adv-x="1145" d="M689.571 602.499c0.037 14.374-4.091 27.347-12.052 39.325-2.027 3.059-3.501 7.187-3.538 10.836-0.221 26.905-0.442 53.773 0.147 80.677 1.474 65.824-33.576 118.16-96.157 139.278-60.591 20.418-122.251 20.529-182.989 1.179-63.871-20.308-100.506-72.753-99.695-137.951 0.332-26.868 0.479-53.773 0.111-80.677-0.074-5.197-2.985-10.356-4.533-15.59-3.612-12.236-9.177-24.288-10.283-36.745-1.732-19.423-0.553-39.141-0.442-58.711 0.111-18.76 6.339-35.013 19.976-48.281 2.248-2.174 4.091-5.307 4.939-8.293 10.43-36.745 27.163-70.394 48.944-101.685 2.138-3.096 3.98-7.113 4.091-10.762 0.442-14.927 0.369-29.89 0.111-44.817-0.295-15.406-6.781-27.716-20.455-35.271-50.787-27.937-101.685-55.652-152.62-83.441 0 0-0.037 0.037-0.037 0.037-0.037-0.074-0.111-0.184-0.147-0.258l27.752-25.209c5.86 3.464 8.882 5.344 11.978 7.039 42.79 23.367 85.653 46.549 128.332 70.1 26.352 14.521 39.988 37.003 40.173 67.299 0.111 18.244 0.332 36.524-0.184 54.768-0.147 4.533-1.99 9.693-4.681 13.342-24.104 32.654-42.089 68.146-51.709 107.766-0.995 4.017-3.944 8.403-7.261 10.872-9.619 7.15-14.116 16.253-14.005 28.121 0.184 18.575 0.221 37.187-0.037 55.763-0.147 10.283 3.391 18.538 10.614 25.836 2.654 2.69 4.939 7.187 4.976 10.872 0.295 31.88 0.7 63.76-0.147 95.604-1.327 49.829 23.403 88.491 70.652 105.076 54.362 19.054 109.72 18.76 164.229 1.179 47.507-15.332 74.301-54.362 73.785-102.164-0.369-32.544-0.7-65.050-0.405-97.594 0.037-4.607 2.506-10.135 5.639-13.6 6.339-7.076 9.84-14.632 9.693-24.177-0.221-18.244-0.479-36.524 0.074-54.768 0.479-16.29-6.155-27.126-21.266-33.391-10.209-4.238-14.005-13.305-10.578-22.629 3.428-9.214 13.231-13.158 23.956-9.582 25.283 8.477 42.642 32.322 43.084 59.854 0.184 20.271-0.111 40.541-0.037 60.775zM749.462 7.906c-8.256 4.423-12.199 11.536-13.452 20.676-0.921 6.892-2.248 13.747-4.017 20.492-6.487 24.509-32.396 34.239-53.515 20.123-7.15-4.791-13.858-10.283-20.971-15.185-9.435-6.487-16.88-5.971-25.025 1.916-10.946 10.614-21.745 21.45-32.396 32.396-7.629 7.887-8.219 14.89-2.359 24.214 4.238 6.745 8.993 13.158 13.231 19.865 14.558 23.109 2.69 49.792-24.214 54.473-8.477 1.474-17.064 2.506-25.541 4.091-9.435 1.769-14.521 7.961-14.742 17.359-0.369 15.922-0.332 31.88-0.037 47.802 0.184 10.283 5.676 16.18 16.217 18.391 7.777 1.622 15.701 2.727 23.44 4.46 25.025 5.676 35.861 32.101 21.855 53.588-4.902 7.482-10.651 14.411-15.701 21.782-6.118 8.993-5.749 16.475 1.732 24.288 10.799 11.278 21.855 22.298 33.096 33.096 7.777 7.482 15 7.887 24.362 1.88 8.661-5.565 16.954-11.683 25.615-17.212 22.629-14.447 49.018-3.206 54.399 23.072 2.064 10.062 3.98 20.16 5.897 30.259 1.916 9.951 8.182 15.111 17.986 15.295 15.922 0.295 31.88 0.442 47.802-0.074 10.578-0.332 16.143-5.971 17.949-16.548 1.437-8.514 2.469-17.064 4.054-25.541 4.681-24.583 30.664-36.229 52.225-23.33 7.408 4.423 14.263 9.693 21.561 14.3 9.251 5.86 16.364 5.234 24.288-2.396 10.983-10.614 21.819-21.376 32.396-32.396 7.887-8.182 8.329-15.701 1.88-25.062-4.902-7.113-10.356-13.821-15.148-20.971-14.484-21.634-3.317-48.834 22.113-54.104 7.482-1.548 15-2.69 22.482-4.275 11.573-2.469 16.511-8.108 16.733-20.050 0.295-14.927 0.332-29.89-0.037-44.817-0.258-11.388-5.197-16.843-16.438-19.054-7.15-1.401-14.374-2.432-21.597-3.501-29.521-4.275-41.942-31.327-25.688-56.131 4.017-6.118 8.329-12.015 12.236-18.17 5.971-9.435 5.639-16.475-1.916-24.362-10.799-11.278-21.819-22.298-33.096-33.096-7.74-7.408-15.295-7.74-24.325-1.695-5.492 3.686-10.578 8.035-16.217 11.536-20.455 12.826-45.922 2.727-52.114-20.639-1.364-5.123-2.506-10.393-2.764-15.627-0.442-9.435-4.718-16.217-12.531-21.118-19.865 0-39.804 0-59.706 0zM968.053 242.382c-29.3 3.98-51.745 17.543-62.618 45.701s-2.875 53.183 15.111 74.965c-4.607 5.234-8.514 9.619-12.494 14.153-3.354-2.101-5.86-3.649-8.366-5.234-45.333-29.116-99.437-6.523-109.167 46.438-1.99 10.836-6.192 13.084-15.369 11.683-1.88-0.295-3.759-0.479-6.45-0.811-3.059-30.811-14.632-56.205-44.743-68.92-30.59-12.936-56.905-2.469-80.198 16.217-5.492-4.681-10.172-8.661-15.074-12.826 19.128-23.219 26.536-47.986 15.701-75.923-10.946-28.195-33.502-41.463-62.212-45.554 0-6.855 0-12.715 0-18.538 60.775-3.796 91.955-69.436 53.957-118.196 3.98-5.049 7.777-9.877 11.646-14.779 2.654 1.806 4.57 3.096 6.45 4.423 46.623 32.838 101.243 11.646 113.184-44.079 1.29-5.934 3.538-8.551 9.804-7.961 5.713 0.553 10.836-1.143 12.789 7.887 7.113 32.802 34.239 54.252 66.746 54.915 16.954 0.332 31.659-5.676 44.079-14.263 5.492 4.386 10.283 8.182 15.185 12.089-18.538 24.325-24.472 49.534-12.42 76.807 12.199 27.642 35.566 39.73 64.387 42.568 0.074 6.892 0.074 12.752 0.074 19.239zM775.297 148.842c-48.797-0.184-87.938 38.846-87.975 87.68 0 48.244 38.846 87.569 86.906 87.938 48.392 0.369 88.417-39.104 88.675-87.422 0.258-48.613-38.883-88.012-87.606-88.196zM775.039 289.041c-29.079 0.037-52.667-23.256-52.888-52.225-0.221-29.005 24.325-53.515 53.257-53.183 29.005 0.332 52.151 23.919 52.114 53.035-0.074 29.263-23.219 52.335-52.483 52.372z" />
<glyph unicode="&#xe906;" horiz-adv-x="1145" d="M979.957 644.92c0-174.991 0-350.019 0-525.010-0.369-0.442-0.885-0.811-1.032-1.327-10.614-37.409-32.544-53.92-71.648-53.92-228.506 0-457.011 0-685.48 0-43.379 0-70.763 27.273-70.763 70.468 0 166.625 0 333.25 0 499.874 0 3.096 0 6.155 0 9.472 5.049 0.332 9.214 0.627 14.226 0.958 0 64.571 0 128.59 0 192.461 267.315 0 533.708 0 800.986 0 0-64.424 0-128.442 0-192.977 5.16 0 9.435 0 13.71 0zM178.64 616.91c0-3.87 0-6.708 0-9.582 0-157.411 0-314.859 0-472.27 0-27.679 15.037-42.753 42.568-42.753 229.648 0 459.333 0 688.981 0 26.905 0 42.126 15.295 42.126 42.347 0 157.706 0 315.411 0 473.117 0 3.022 0 6.081 0 9.177-258.396-0.037-515.575-0.037-773.676-0.037zM779.020 810.587c8.624-9.73 9.546-17.064 3.464-23.256-5.16-5.234-13.71-6.044-18.538-0.553-2.727 3.096-4.718 8.182-4.46 12.199 0.258 3.944 3.833 7.666 5.897 11.388-22.74 0-45.627 0-68.847 0 8.366-9.877 9.103-17.47 2.543-23.514-5.16-4.754-13.010-5.197-18.022-0.258-2.285 2.248-4.939 6.007-4.607 8.735 0.663 5.234 3.391 10.172 5.197 15.111-21.892 0-44.78 0-67.925 0 8.219-10.246 8.919-17.47 2.543-23.477-5.344-5.049-13.415-5.049-18.76-0.037-6.45 6.007-5.713 13.489 2.322 23.182-22.998 0-45.996 0-69.547 0 8.477-8.845 9.546-16.106 3.833-22.408-4.718-5.197-12.863-6.634-17.801-1.769-3.096 3.059-5.602 8.256-5.565 12.494 0.037 4.017 3.686 7.998 5.639 11.757-22.74 0-45.554 0-68.847 0 8.293-9.030 9.361-16.069 3.796-22.371-4.865-5.492-13.379-6.745-18.465-1.511-2.875 2.948-5.234 7.961-5.049 11.904 0.221 4.165 3.796 8.145 5.786 12.052-22.703 0-45.591 0-68.81 0 8.329-9.435 9.214-16.769 3.17-22.924-5.123-5.27-13.71-6.081-18.538-0.59-2.727 3.096-4.754 8.182-4.46 12.162 0.258 3.944 3.833 7.703 5.897 11.425-22.74 0-45.627 0-69.547 0 6.007-5.786 10.172-11.499 6.229-19.312-4.423-8.845-12.126-8.698-20.713-7.039 4.091-4.865 8.514-8.956 12.678-13.231 28.6-29.411 22.703-15.811 23.33-56.647 0.184-11.536 0.037-23.109 0.037-35.897 9.435 9.14 16.769 10.246 23.072 4.496 5.639-5.16 6.007-13.747 0.811-19.386-6.044-6.56-13.673-5.823-23.367 2.432 0-6.892 0-13.526 0-20.234 175.028 0 349.503 0 524.126 0 0 7.076 0 13.563 0 20.308-10.025-8.329-17.47-9.067-23.514-2.617-4.976 5.344-4.976 13.489 0.037 18.796 6.044 6.376 13.379 5.639 23.809-2.875 0 19.128 0.295 37.74-0.147 56.352-0.184 8.477 2.543 14.853 8.661 20.566 9.546 8.882 18.575 18.317 27.826 27.494-8.403-1.843-15.295-1.216-20.050 5.786-5.528 8.108-1.327 14.816 5.16 21.266-23.772 0-46.475 0-70.284 0zM192.977 812.024c0-57.090 0-111.931 0-168.652 3.722 1.99 7.039 2.69 8.624 4.754 23.109 30.443 45.996 61.033 68.883 91.513-0.737 1.216-1.032 2.064-1.622 2.617-21.745 21.782-43.453 43.674-65.419 65.235-2.285 2.285-6.265 2.801-10.467 4.533zM938.237 813.056c-5.27-2.912-9.325-4.202-12.089-6.855-13.858-13.415-27.31-27.2-41.020-40.762-8.329-8.219-16.88-16.253-25.504-24.546 23.883-31.807 46.77-62.434 69.915-92.84 1.548-2.027 5.197-2.469 8.661-4.017 0.037 56.647 0.037 111.267 0.037 169.020zM234.329 645.473c14.484 0 27.494 0 40.21 0 0 17.728 0 34.829 0 53.625-13.821-18.428-26.573-35.418-40.21-53.625zM856.196 699.467c0-19.46 0-36.745 0-53.736 13.526 0 26.426 0 40.283 0-13.489 17.986-26.241 34.976-40.283 53.736zM263.74 787.884c-3.833 9.251-2.211 16.401 5.86 22.261-10.209 0-19.054 0-28.747 0 7.666-7.445 14.521-14.153 22.887-22.261zM869.759 791.459c5.086 5.012 12.015 11.868 19.018 18.796-8.514 0-17.359 0-24.104 0 1.806-6.781 3.686-13.6 5.086-18.796z" />
<glyph unicode="&#xe907;" horiz-adv-x="1145" d="M745.076 472.656c0 15.553 0.184 31.069-0.074 46.586-0.184 11.757-10.283 18.428-19.902 13.526-6.229-3.17-7.703-8.661-7.703-15.148 0.074-28.489 0.479-56.979-0.147-85.432-1.659-78.171-68.183-144.511-146.28-146.391-87.643-2.101-157.227 65.677-157.485 153.467-0.074 25.615 0 51.193-0.037 76.807 0 11.757-4.791 18.133-13.6 18.244-8.882 0.147-13.968-6.302-14.005-17.838-0.037-15.258-0.405-30.517 0.074-45.738 0.7-22.077-0.147-44.522 3.501-66.156 13.747-80.751 84.547-142.3 166.146-146.28 83.847-4.091 159.512 49.829 182.473 129.585 8.108 27.863 7.15 56.316 7.039 84.768zM399.516 575.816c-28.084-0.074-52.003-21.708-54.878-49.645-1.143-11.057 3.538-18.391 12.31-19.276 8.44-0.848 13.931 4.902 15.185 15.848 1.695 14.853 13.342 25.541 27.716 25.467 14.337-0.074 25.762-10.836 27.421-25.799 1.179-10.725 7.039-16.548 15.479-15.479s12.973 8.108 12.015 18.723c-2.543 28.232-26.757 50.234-55.247 50.161zM731.365 575.816c-28.453 0.037-52.741-22.077-55.173-50.234-0.921-10.651 3.612-17.654 12.052-18.686s14.226 4.791 15.443 15.553c1.659 15 13.084 25.688 27.458 25.725 14.337 0.037 25.983-10.688 27.679-25.504 1.253-10.909 6.781-16.659 15.221-15.774 8.514 0.885 13.194 7.887 12.31 18.465-2.322 28.195-26.536 50.419-54.989 50.456z" />
<glyph unicode="&#xe908;" horiz-adv-x="1145" d="M330.522 755.377c0.074 7.482-6.155 13.784-13.637 13.821-7.482 0.074-13.784-6.118-13.821-13.637-0.074-7.482 6.155-13.784 13.637-13.858 7.445-0.037 13.784 6.192 13.821 13.673zM399.959 769.198c-7.482 0.147-13.858-5.934-14.005-13.452-0.147-7.482 5.971-13.858 13.452-14.042 7.445-0.147 13.858 6.007 14.042 13.452 0.147 7.482-5.971 13.895-13.489 14.042zM496.336 755.045c0.258 7.445-5.823 13.931-13.305 14.153s-13.895-5.823-14.153-13.305c-0.221-7.482 5.823-13.931 13.305-14.153 7.408-0.258 13.895 5.823 14.153 13.305zM565.515 741.703c7.482 0.037 13.71 6.302 13.71 13.784-0.037 7.482-6.302 13.71-13.784 13.71-7.519-0.037-13.71-6.265-13.673-13.784 0-7.482 6.265-13.71 13.747-13.71zM662.113 755.745c-0.147 7.482-6.56 13.6-14.042 13.452-7.519-0.147-13.6-6.523-13.452-14.005s6.56-13.637 14.005-13.452c7.519 0.147 13.637 6.56 13.489 14.005zM731.402 741.703c7.482 0.074 13.673 6.413 13.6 13.895s-6.413 13.673-13.895 13.6c-7.519-0.074-13.673-6.376-13.6-13.858 0.111-7.519 6.413-13.71 13.895-13.637zM827.891 755.856c-0.221 7.482-6.671 13.563-14.153 13.342-7.519-0.221-13.563-6.634-13.305-14.153 0.221-7.482 6.671-13.563 14.153-13.342 7.445 0.258 13.563 6.745 13.305 14.153zM371.985 714.062c0 7.482-6.265 13.71-13.784 13.71s-13.71-6.265-13.71-13.747c0-7.482 6.265-13.747 13.747-13.71 7.482-0.037 13.747 6.265 13.747 13.747zM454.874 714.43c-0.221 7.482-6.671 13.563-14.153 13.342-7.519-0.221-13.563-6.634-13.342-14.153 0.221-7.482 6.671-13.563 14.116-13.342 7.519 0.221 13.6 6.708 13.379 14.153zM524.052 700.278c7.482 0.037 13.71 6.302 13.71 13.784-0.037 7.482-6.302 13.71-13.784 13.71-7.519-0.037-13.71-6.265-13.673-13.784 0.037-7.482 6.302-13.747 13.747-13.71zM606.867 700.278c7.482-0.037 13.747 6.229 13.784 13.71s-6.192 13.747-13.71 13.784c-7.519 0.037-13.747-6.192-13.784-13.71 0-7.482 6.229-13.747 13.71-13.784zM703.576 713.767c0.147 7.482-6.007 13.821-13.489 13.968s-13.821-5.971-13.968-13.489c-0.147-7.482 6.007-13.858 13.489-14.005 7.408-0.111 13.821 6.081 13.968 13.526zM772.865 700.278c7.482 0.074 13.673 6.413 13.6 13.895s-6.413 13.673-13.895 13.6c-7.519-0.074-13.673-6.376-13.6-13.858 0.111-7.519 6.413-13.71 13.895-13.637zM399.443 686.309c-7.519-0.147-13.637-6.487-13.489-13.968s6.523-13.637 13.968-13.489c7.482 0.147 13.637 6.56 13.489 14.005-0.111 7.445-6.487 13.6-13.968 13.452zM482.737 658.815c7.482 0.074 13.673 6.413 13.6 13.895s-6.413 13.673-13.895 13.6c-7.519-0.074-13.673-6.376-13.6-13.858 0.074-7.519 6.413-13.71 13.895-13.637zM565.072 658.815c7.445-0.221 13.931 5.86 14.153 13.342 0.221 7.445-5.823 13.931-13.342 14.153-7.482 0.221-13.895-5.823-14.153-13.305-0.221-7.482 5.86-13.931 13.342-14.189zM649.067 686.309c-7.445 0.369-14.005-5.565-14.411-13.047-0.369-7.445 5.602-14.042 13.047-14.411 7.408-0.369 14.042 5.602 14.411 13.084 0.369 7.408-5.602 13.968-13.047 14.374zM745.002 672.525c0.037 7.482-6.192 13.747-13.71 13.784s-13.747-6.192-13.784-13.673c-0.037-7.482 6.192-13.747 13.673-13.784 7.519-0.074 13.784 6.192 13.821 13.673z" />
<glyph unicode="&#xe909;" horiz-adv-x="1145" d="M745.076 472.656c0.111-28.453 1.069-56.868-6.966-84.768-22.961-79.756-98.626-133.713-182.473-129.585-81.599 3.98-152.435 65.53-166.146 146.28-3.686 21.634-2.801 44.079-3.501 66.156-0.479 15.221-0.111 30.48-0.074 45.738 0.037 11.573 5.123 17.986 14.005 17.838 8.809-0.147 13.6-6.487 13.6-18.244 0.037-25.615-0.037-51.193 0.037-76.807 0.258-87.79 69.842-155.568 157.485-153.467 78.134 1.88 144.622 68.22 146.28 146.391 0.59 28.453 0.221 56.942 0.147 85.432 0 6.487 1.474 11.978 7.703 15.148 9.582 4.902 19.681-1.769 19.902-13.526 0.184-15.516 0-31.069 0-46.586z" />
<glyph unicode="&#xe90a;" horiz-adv-x="1145" d="M399.516 575.816c28.489 0.074 52.704-21.929 55.247-50.161 0.958-10.614-3.575-17.654-12.015-18.723-8.477-1.069-14.3 4.754-15.479 15.479-1.659 14.963-13.084 25.725-27.421 25.799-14.411 0.074-26.020-10.578-27.716-25.467-1.253-10.946-6.745-16.696-15.185-15.848-8.772 0.848-13.452 8.219-12.31 19.276 2.875 27.937 26.794 49.571 54.878 49.645z" />
<glyph unicode="&#xe90b;" horiz-adv-x="1145" d="M731.365 575.816c28.453-0.037 52.63-22.261 54.989-50.456 0.885-10.578-3.796-17.58-12.31-18.465-8.44-0.885-13.968 4.865-15.221 15.774-1.695 14.816-13.342 25.578-27.679 25.504-14.374-0.037-25.799-10.725-27.458-25.725-1.179-10.725-6.966-16.548-15.443-15.553-8.477 1.032-12.973 8.035-12.052 18.686 2.469 28.158 26.757 50.271 55.173 50.234z" />
<glyph unicode="&#xe90c;" horiz-adv-x="1145" d="M330.522 755.377c-0.074-7.482-6.376-13.71-13.858-13.637s-13.673 6.376-13.637 13.858c0.074 7.519 6.339 13.673 13.821 13.637 7.555-0.111 13.747-6.376 13.673-13.858z" />
<glyph unicode="&#xe90d;" horiz-adv-x="1145" d="M399.959 769.198c7.482-0.147 13.637-6.56 13.452-14.005-0.147-7.482-6.597-13.637-14.042-13.452-7.482 0.147-13.6 6.56-13.452 14.042 0.221 7.482 6.56 13.563 14.042 13.415z" />
<glyph unicode="&#xe90e;" horiz-adv-x="1145" d="M496.336 755.045c-0.258-7.482-6.745-13.563-14.153-13.342-7.482 0.258-13.563 6.708-13.305 14.153 0.258 7.519 6.671 13.563 14.153 13.305 7.445-0.184 13.526-6.671 13.305-14.116z" />
<glyph unicode="&#xe90f;" horiz-adv-x="1145" d="M565.515 741.703c-7.482-0.037-13.747 6.229-13.784 13.71-0.037 7.519 6.192 13.747 13.673 13.784s13.747-6.192 13.784-13.71c0.074-7.445-6.192-13.747-13.673-13.784z" />
<glyph unicode="&#xe910;" horiz-adv-x="1145" d="M662.113 755.745c0.147-7.445-6.007-13.858-13.452-14.042-7.445-0.147-13.858 5.971-14.005 13.452s5.934 13.858 13.452 14.005c7.445 0.184 13.858-5.934 14.005-13.415z" />
<glyph unicode="&#xe911;" horiz-adv-x="1145" d="M731.402 741.703c-7.482-0.074-13.784 6.118-13.858 13.6-0.074 7.519 6.081 13.784 13.6 13.858 7.482 0.074 13.784-6.118 13.895-13.6 0.037-7.408-6.155-13.747-13.637-13.858z" />
<glyph unicode="&#xe912;" horiz-adv-x="1145" d="M827.891 755.856c0.221-7.445-5.86-13.931-13.342-14.153-7.445-0.221-13.895 5.86-14.153 13.342-0.221 7.482 5.823 13.895 13.305 14.153 7.519 0.221 13.968-5.823 14.189-13.342z" />
<glyph unicode="&#xe913;" horiz-adv-x="1145" d="M371.985 714.062c0-7.482-6.229-13.747-13.71-13.784-7.482 0-13.747 6.229-13.747 13.71 0 7.519 6.192 13.747 13.71 13.747 7.482 0.037 13.71-6.192 13.747-13.673z" />
<glyph unicode="&#xe914;" horiz-adv-x="1145" d="M454.874 714.43c0.221-7.445-5.86-13.931-13.342-14.153-7.445-0.221-13.895 5.86-14.116 13.342s5.823 13.895 13.342 14.153c7.445 0.221 13.895-5.86 14.116-13.342z" />
<glyph unicode="&#xe915;" horiz-adv-x="1145" d="M524.052 700.278c-7.482-0.037-13.747 6.229-13.784 13.71-0.037 7.519 6.192 13.747 13.673 13.784s13.747-6.192 13.784-13.71c0.074-7.482-6.192-13.784-13.673-13.784z" />
<glyph unicode="&#xe916;" horiz-adv-x="1145" d="M606.867 700.278c-7.482 0.037-13.71 6.302-13.673 13.784 0.037 7.519 6.265 13.71 13.784 13.71 7.482-0.037 13.71-6.302 13.71-13.784-0.037-7.482-6.339-13.747-13.821-13.71z" />
<glyph unicode="&#xe917;" horiz-adv-x="1145" d="M703.576 713.767c-0.147-7.482-6.523-13.637-13.968-13.489-7.482 0.147-13.637 6.523-13.489 14.005 0.147 7.519 6.487 13.637 13.968 13.489s13.6-6.523 13.489-14.005z" />
<glyph unicode="&#xe918;" horiz-adv-x="1145" d="M772.865 700.278c-7.482-0.074-13.784 6.118-13.858 13.6-0.074 7.519 6.081 13.784 13.6 13.858 7.482 0.074 13.784-6.118 13.895-13.6 0.037-7.445-6.192-13.784-13.637-13.858z" />
<glyph unicode="&#xe919;" horiz-adv-x="1145" d="M399.443 686.309c7.482 0.147 13.858-6.007 14.005-13.489 0.147-7.445-6.007-13.858-13.489-14.005s-13.821 6.007-13.968 13.489c-0.184 7.519 5.934 13.858 13.452 14.005z" />
<glyph unicode="&#xe91a;" horiz-adv-x="1145" d="M482.737 658.815c-7.482-0.074-13.784 6.118-13.858 13.6-0.074 7.519 6.081 13.784 13.6 13.858 7.482 0.074 13.784-6.118 13.895-13.6 0.037-7.408-6.192-13.784-13.637-13.858z" />
<glyph unicode="&#xe91b;" horiz-adv-x="1145" d="M565.072 658.815c-7.482 0.258-13.563 6.708-13.305 14.153 0.221 7.519 6.671 13.563 14.153 13.305 7.482-0.221 13.563-6.708 13.342-14.153-0.295-7.445-6.781-13.526-14.189-13.305z" />
<glyph unicode="&#xe91c;" horiz-adv-x="1145" d="M649.067 686.309c7.482-0.369 13.452-6.966 13.084-14.411s-7.003-13.452-14.411-13.084c-7.445 0.405-13.415 7.003-13.047 14.411 0.332 7.519 6.892 13.452 14.374 13.084z" />
<glyph unicode="&#xe91d;" horiz-adv-x="1145" d="M745.002 672.525c-0.037-7.482-6.339-13.747-13.784-13.71-7.482 0.037-13.71 6.302-13.673 13.784 0.037 7.519 6.265 13.71 13.784 13.673 7.482 0 13.71-6.265 13.673-13.747z" />
</font>
</defs>
</svg>
